<svg xmlns="http://www.w3.org/2000/svg" viewBox="0 0 512 512">
  <defs>
    <linearGradient id="bg" x1="0" y1="0" x2="1" y2="1">
      <stop stop-color="#8b5cf6"/>
      <stop offset=".52" stop-color="#d946ef"/>
      <stop offset="1" stop-color="#fb7185"/>
    </linearGradient>
    <linearGradient id="face" x1="0" y1="0" x2="0" y2="1">
      <stop stop-color="#fff"/>
      <stop offset="1" stop-color="#e9e7ff"/>
    </linearGradient>
  </defs>
  <rect width="512" height="512" rx="118" fill="url(#bg)"/>
  <circle cx="256" cy="256" r="186" fill="#0d1020" opacity=".28"/>
  <path d="M151 206c0-62 47-108 105-108s105 46 105 108v82c0 70-47 123-105 123s-105-53-105-123z" fill="url(#face)"/>
  <path d="M151 216c18-52 56-78 105-78s87 26 105 78v-30c0-62-47-108-105-108s-105 46-105 108z" fill="#171a31"/>
  <path d="M190 259c19-12 40-12 59 0M263 259c19-12 40-12 59 0" fill="none" stroke="#171a31" stroke-linecap="round" stroke-width="16"/>
  <path d="M208 324c29 22 67 22 96 0" fill="none" stroke="#d946ef" stroke-linecap="round" stroke-width="15"/>
  <path d="M121 180l44 27M391 180l-44 27" fill="none" stroke="#fff" stroke-linecap="round" stroke-width="19" opacity=".9"/>
  <circle cx="386" cy="375" r="48" fill="#22d3ee"/>
  <path d="M363 375l16 16 31-34" fill="none" stroke="#07101a" stroke-linecap="round" stroke-linejoin="round" stroke-width="15"/>
</svg>
