<svg xmlns="http://www.w3.org/2000/svg" viewBox="0 0 512 512">
  <defs>
    <linearGradient id="bg" x1="0" y1="0" x2="1" y2="1"><stop stop-color="#08031b"/><stop offset=".45" stop-color="#21073c"/><stop offset="1" stop-color="#16050d"/></linearGradient>
    <linearGradient id="hood" x1="0" y1="0" x2="1" y2="1"><stop stop-color="#31106a"/><stop offset=".48" stop-color="#090713"/><stop offset="1" stop-color="#e11d48"/></linearGradient>
    <linearGradient id="party" x1="0" y1="0" x2="1" y2="0"><stop stop-color="#fff"/><stop offset="1" stop-color="#dbeafe"/></linearGradient>
    <linearGradient id="box" x1="0" y1="0" x2="1" y2="0"><stop stop-color="#d946ef"/><stop offset=".5" stop-color="#f97316"/><stop offset="1" stop-color="#22d3ee"/></linearGradient>
    <filter id="glow"><feGaussianBlur stdDeviation="6" result="b"/><feMerge><feMergeNode in="b"/><feMergeNode in="SourceGraphic"/></feMerge></filter>
    <filter id="shadow"><feDropShadow dx="0" dy="7" stdDeviation="7" flood-color="#000" flood-opacity=".8"/></filter>
  </defs>
  <rect width="512" height="512" fill="url(#bg)"/>
  <circle cx="70" cy="110" r="65" fill="#2563eb" opacity=".25"/><circle cx="445" cy="112" r="68" fill="#ef4444" opacity=".25"/>
  <g opacity=".9" filter="url(#shadow)"><g transform="translate(68 190) rotate(-14 54 70)"><rect width="108" height="140" rx="18" fill="#17114b" stroke="#67e8f9" stroke-width="6"/><circle cx="54" cy="54" r="24" fill="#8b5cf6"/><text x="54" y="66" text-anchor="middle" fill="#fff" font-family="Arial" font-size="34" font-weight="900">?</text></g><g transform="translate(336 187) rotate(14 54 70)"><rect width="108" height="140" rx="18" fill="#450a0a" stroke="#fb7185" stroke-width="6"/><circle cx="54" cy="54" r="25" fill="#f97316"/><path d="M40 52q14 15 28 0" fill="none" stroke="#fff" stroke-width="6" stroke-linecap="round"/></g></g>
  <g filter="url(#shadow)"><path d="M169 243c5-101 38-166 87-166s82 65 87 166l-35 64H204z" fill="url(#hood)" stroke="#fb2c94" stroke-width="5"/><ellipse cx="256" cy="177" rx="61" ry="69" fill="#05050a"/><path d="M216 160q20 6 31 23-24 12-41-6zM296 160q-20 6-31 23 24 12 41-6z" fill="#fff" filter="url(#glow)"/><path d="M257 198c-7 14-6 39-4 57 2 16 19 18 24 5 3-10-3-20-11-25l-2-36c-1-8-3-12-7-12s-6 4-6 12v37" fill="#07070d" stroke="#fb7185" stroke-width="4"/></g>
  <g filter="url(#shadow)"><path d="M88 302h336l-20 72H108z" fill="#080b12" stroke="#f43f5e" stroke-width="5"/><text x="256" y="358" text-anchor="middle" fill="url(#party)" stroke="#111827" stroke-width="5" paint-order="stroke" font-family="Arial Black,Arial" font-size="68" font-weight="900" letter-spacing="-4">PARTY</text><rect x="151" y="366" width="210" height="76" rx="24" fill="#090716" stroke="url(#box)" stroke-width="6"/><text x="256" y="427" text-anchor="middle" fill="url(#box)" stroke="#111827" stroke-width="4" paint-order="stroke" font-family="Arial Black,Arial" font-size="70" font-weight="900">BOX</text></g>
</svg>
