<svg xmlns="http://www.w3.org/2000/svg" viewBox="0 0 480 320">
  <defs>
    <linearGradient id="bg" x1="0" y1="0" x2="1" y2="1"><stop stop-color="#3b2605"/><stop offset=".55" stop-color="#171524"/><stop offset="1" stop-color="#080a11"/></linearGradient>
    <linearGradient id="tile" x1="0" y1="0" x2="1" y2="1"><stop stop-color="#fde68a"/><stop offset="1" stop-color="#f59e0b"/></linearGradient>
    <radialGradient id="g"><stop stop-color="#f59e0b" stop-opacity=".58"/><stop offset="1" stop-color="#f59e0b" stop-opacity="0"/></radialGradient>
    <filter id="s"><feDropShadow dx="0" dy="18" stdDeviation="14" flood-color="#000" flood-opacity=".55"/></filter>
  </defs>
  <rect width="480" height="320" fill="url(#bg)"/><circle cx="245" cy="158" r="195" fill="url(#g)"/>
  <g filter="url(#s)" transform="rotate(-5 240 160)"><rect x="160" y="59" width="160" height="202" rx="31" fill="url(#tile)"/><rect x="176" y="75" width="128" height="170" rx="23" fill="#fff7d6" opacity=".95"/><text x="240" y="205" text-anchor="middle" font-family="Arial,sans-serif" font-size="132" font-weight="900" fill="#7c2d12">K</text></g>
  <g fill="#fef3c7" opacity=".92"><path d="M83 91h48v13H83zM100 74h14v48h-14z"/><circle cx="375" cy="88" r="26"/><path d="M351 88h48M375 64v48" stroke="#78350f" stroke-width="9"/></g>
  <g fill="none" stroke="#fcd34d" stroke-width="6" stroke-linecap="round" opacity=".75"><path d="M60 230c26-34 54-34 80 0M344 230c26-34 54-34 80 0"/><path d="M78 252h45M360 252h45"/></g>
</svg>
