<svg xmlns="http://www.w3.org/2000/svg" viewBox="0 0 480 320">
  <defs>
    <linearGradient id="bg" x1="0" y1="0" x2="1" y2="1"><stop stop-color="#063524"/><stop offset=".58" stop-color="#101a24"/><stop offset="1" stop-color="#070a11"/></linearGradient>
    <linearGradient id="ring" x1="0" y1="0" x2="1" y2="1"><stop stop-color="#6ee7b7"/><stop offset="1" stop-color="#059669"/></linearGradient>
    <radialGradient id="g"><stop stop-color="#10b981" stop-opacity=".55"/><stop offset="1" stop-color="#10b981" stop-opacity="0"/></radialGradient>
    <filter id="s"><feDropShadow dx="0" dy="18" stdDeviation="16" flood-color="#000" flood-opacity=".55"/></filter>
  </defs>
  <rect width="480" height="320" fill="url(#bg)"/><circle cx="240" cy="160" r="195" fill="url(#g)"/>
  <g filter="url(#s)"><circle cx="240" cy="151" r="105" fill="#0d2a24" stroke="url(#ring)" stroke-width="18"/><path d="M213 27h54v22h-54zM240 47v18M322 75l18-18 16 16-19 18" fill="none" stroke="#a7f3d0" stroke-width="12" stroke-linecap="round"/>
    <text x="240" y="184" text-anchor="middle" font-family="Arial,sans-serif" font-size="92" font-weight="900" fill="#ecfdf5">10</text>
  </g>
  <g transform="translate(125 270)"><circle cx="0" r="13" fill="#34d399"/><circle cx="57" r="13" fill="#34d399"/><circle cx="115" r="13" fill="#34d399"/><circle cx="173" r="13" fill="#34d399"/><circle cx="230" r="13" fill="#34d399"/></g>
  <g fill="#d1fae5" opacity=".65"><path d="M69 90h45v10H69zM86 73h10v45H86z"/><path d="M368 78h43v10h-43zM384 62h10v43h-10z"/></g>
</svg>
